<svg width="320" height="320" viewBox="0 0 320 320" fill="none" xmlns="http://www.w3.org/2000/svg">
<circle cx="160" cy="160" r="158" stroke="#F0F0F0" stroke-width="4"/>
<circle cx="160" cy="160" r="150" fill="#0E7C7B" fill-opacity="0.4" stroke="#F0F0F0" stroke-width="2"/>
<path d="M73.9029 170.616H60.5589L58.3509 177H51.2949L63.3429 143.448H71.1669L83.2149 177H76.1109L73.9029 170.616ZM72.0789 165.24L67.2309 151.224L62.3829 165.24H72.0789ZM94.4383 154.296C95.3023 153.016 96.4863 151.976 97.9903 151.176C99.5263 150.376 101.27 149.976 103.222 149.976C105.494 149.976 107.542 150.536 109.366 151.656C111.222 152.776 112.678 154.376 113.734 156.456C114.822 158.504 115.366 160.888 115.366 163.608C115.366 166.328 114.822 168.744 113.734 170.856C112.678 172.936 111.222 174.552 109.366 175.704C107.542 176.856 105.494 177.432 103.222 177.432C101.238 177.432 99.4943 177.048 97.9903 176.28C96.5183 175.48 95.3343 174.456 94.4383 173.208V177H87.7183V141.48H94.4383V154.296ZM108.502 163.608C108.502 162.008 108.166 160.632 107.494 159.48C106.854 158.296 105.99 157.4 104.902 156.792C103.846 156.184 102.694 155.88 101.446 155.88C100.23 155.88 99.0783 156.2 97.9903 156.84C96.9343 157.448 96.0703 158.344 95.3983 159.528C94.7583 160.712 94.4383 162.104 94.4383 163.704C94.4383 165.304 94.7583 166.696 95.3983 167.88C96.0703 169.064 96.9343 169.976 97.9903 170.616C99.0783 171.224 100.23 171.528 101.446 171.528C102.694 171.528 103.846 171.208 104.902 170.568C105.99 169.928 106.854 169.016 107.494 167.832C108.166 166.648 108.502 165.24 108.502 163.608ZM132.058 177.432C129.498 177.432 127.194 176.872 125.146 175.752C123.098 174.6 121.482 172.984 120.298 170.904C119.146 168.824 118.57 166.424 118.57 163.704C118.57 160.984 119.162 158.584 120.346 156.504C121.562 154.424 123.21 152.824 125.29 151.704C127.37 150.552 129.69 149.976 132.25 149.976C134.81 149.976 137.13 150.552 139.21 151.704C141.29 152.824 142.922 154.424 144.106 156.504C145.322 158.584 145.93 160.984 145.93 163.704C145.93 166.424 145.306 168.824 144.057 170.904C142.842 172.984 141.178 174.6 139.066 175.752C136.986 176.872 134.65 177.432 132.058 177.432ZM132.058 171.576C133.274 171.576 134.41 171.288 135.466 170.712C136.554 170.104 137.418 169.208 138.058 168.024C138.698 166.84 139.018 165.4 139.018 163.704C139.018 161.176 138.346 159.24 137.002 157.896C135.69 156.52 134.074 155.832 132.154 155.832C130.234 155.832 128.618 156.52 127.306 157.896C126.026 159.24 125.386 161.176 125.386 163.704C125.386 166.232 126.01 168.184 127.258 169.56C128.538 170.904 130.138 171.576 132.058 171.576ZM175.963 150.408V177H169.195V173.64C168.331 174.792 167.195 175.704 165.787 176.376C164.411 177.016 162.907 177.336 161.275 177.336C159.195 177.336 157.355 176.904 155.755 176.04C154.155 175.144 152.891 173.848 151.963 172.152C151.067 170.424 150.619 168.376 150.619 166.008V150.408H157.339V165.048C157.339 167.16 157.867 168.792 158.923 169.944C159.979 171.064 161.419 171.624 163.243 171.624C165.099 171.624 166.555 171.064 167.611 169.944C168.667 168.792 169.195 167.16 169.195 165.048V150.408H175.963ZM190.417 155.928V168.792C190.417 169.688 190.625 170.344 191.041 170.76C191.489 171.144 192.225 171.336 193.249 171.336H196.369V177H192.145C186.481 177 183.649 174.248 183.649 168.744V155.928H180.481V150.408H183.649V143.832H190.417V150.408H196.369V155.928H190.417ZM219.264 143.496V164.232C219.264 166.504 219.856 168.248 221.04 169.464C222.224 170.648 223.888 171.24 226.032 171.24C228.208 171.24 229.888 170.648 231.072 169.464C232.256 168.248 232.848 166.504 232.848 164.232V143.496H239.616V164.184C239.616 167.032 238.992 169.448 237.744 171.432C236.528 173.384 234.88 174.856 232.8 175.848C230.752 176.84 228.464 177.336 225.936 177.336C223.44 177.336 221.168 176.84 219.12 175.848C217.104 174.856 215.504 173.384 214.32 171.432C213.136 169.448 212.544 167.032 212.544 164.184V143.496H219.264ZM256.285 177.432C254.109 177.432 252.157 177.048 250.429 176.28C248.701 175.48 247.325 174.408 246.301 173.064C245.309 171.72 244.765 170.232 244.669 168.6H251.437C251.565 169.624 252.061 170.472 252.925 171.144C253.821 171.816 254.925 172.152 256.237 172.152C257.517 172.152 258.509 171.896 259.213 171.384C259.949 170.872 260.317 170.216 260.317 169.416C260.317 168.552 259.869 167.912 258.973 167.496C258.109 167.048 256.717 166.568 254.797 166.056C252.813 165.576 251.181 165.08 249.901 164.568C248.653 164.056 247.565 163.272 246.637 162.216C245.741 161.16 245.293 159.736 245.293 157.944C245.293 156.472 245.709 155.128 246.541 153.912C247.405 152.696 248.621 151.736 250.189 151.032C251.789 150.328 253.661 149.976 255.805 149.976C258.973 149.976 261.501 150.776 263.389 152.376C265.277 153.944 266.317 156.072 266.509 158.76H260.077C259.981 157.704 259.533 156.872 258.733 156.264C257.965 155.624 256.925 155.304 255.613 155.304C254.397 155.304 253.453 155.528 252.781 155.976C252.141 156.424 251.821 157.048 251.821 157.848C251.821 158.744 252.269 159.432 253.165 159.912C254.061 160.36 255.453 160.824 257.341 161.304C259.261 161.784 260.845 162.28 262.093 162.792C263.341 163.304 264.413 164.104 265.309 165.192C266.237 166.248 266.717 167.656 266.749 169.416C266.749 170.952 266.317 172.328 265.453 173.544C264.621 174.76 263.405 175.72 261.805 176.424C260.237 177.096 258.397 177.432 256.285 177.432Z" fill="#F2F2F2"/>
<line x1="52" y1="187" x2="268" y2="187" stroke="#F0F0F0" stroke-width="2"/>
<line x1="52" y1="131" x2="268" y2="131" stroke="#F0F0F0" stroke-width="2"/>
</svg>
